<svg xmlns="http://www.w3.org/2000/svg" version="1.1" xmlns:xlink="http://www.w3.org/1999/xlink" xmlns:svgjs="http://svgjs.dev/svgjs" width="1000" height="625" viewBox="0 0 1000 625"><g transform="matrix(1,0,0,1,0,0)"><svg viewBox="0 0 512 320" data-background-color="#ffffff" preserveAspectRatio="xMidYMid meet" height="625" width="1000" xmlns="http://www.w3.org/2000/svg" xmlns:xlink="http://www.w3.org/1999/xlink"><g id="tight-bounds" transform="matrix(1,0,0,1,0,0)"><svg viewBox="0 0 512 320" height="320" width="512"><g><svg></svg></g><g><svg viewBox="0 0 512 320" height="320" width="512"><g><path xmlns="http://www.w3.org/2000/svg" d="M96 160c0-88.366 71.634-160 160-160 88.366 0 160 71.634 160 160 0 88.366-71.634 160-160 160-88.366 0-160-71.634-160-160zM256 312.549c84.25 0 152.549-68.298 152.549-152.549 0-84.25-68.298-152.549-152.549-152.549-84.25 0-152.549 68.298-152.549 152.549 0 84.25 68.298 152.549 152.549 152.549z" fill="#31c48d" fill-rule="nonzero" stroke="none" stroke-width="1" stroke-linecap="butt" stroke-linejoin="miter" stroke-miterlimit="10" stroke-dasharray="" stroke-dashoffset="0" font-family="none" font-weight="none" font-size="none" text-anchor="none" style="mix-blend-mode: normal" data-fill-palette-color="tertiary"></path></g><g transform="matrix(1,0,0,1,128,122.36537365871564)"><svg viewBox="0 0 255.99999999999997 75.2692526825687" height="75.2692526825687" width="255.99999999999997"><g><svg viewBox="0 0 255.99999999999997 75.2692526825687" height="75.2692526825687" width="255.99999999999997"><g><svg viewBox="0 0 255.99999999999997 75.2692526825687" height="75.2692526825687" width="255.99999999999997"><g id="textblocktransform"><svg viewBox="0 0 255.99999999999997 75.2692526825687" height="75.2692526825687" width="255.99999999999997" id="textblock"><g><svg viewBox="0 0 255.99999999999997 75.2692526825687" height="75.2692526825687" width="255.99999999999997"><path d="M255.401 16.144C254.197 8.331 250.767 6.159 250.767 6.159 240.236-1.888 227.094-0.154 215.288 1.002 194.443 1.049 173.682 2.768 152.886 3.69 109.234 3.831 65.21 1.518 21.775 7.221 17.695 8.972-4.233 7.565 0.726 17.144 2.026 21.128 6.767 25.551 6.623 29.207 7.273 29.848 8.175 28.379 8.561 29.301 9.908 31.785 12.111 30.613 13.916 32.082 11.401 36.004 13.206 39.27 14.927 42.692 11.894 43.583 8.007 43.161 6.262 46.114 6.081 48.255 5.106 47.849 4.035 47.755 3.253 47.692 1.676 47.927 1.941 48.599 2.844 50.896-1.031 52.224 1.4 54.474-0.273 56.912 2.555 59.021 2.17 61.662 2.122 62.193 2.387 62.646 2.808 62.771 4.673 63.443 1.953 64.756 2.242 66.178 21.378 75.897 42.139 69.178 61.744 73.647 66.835 70.522 63.007 74.756 65.041 74.1 66.63 73.334 67.785 76.506 69.579 74.709 69.855 74.194 69.434 72.975 70.421 73.209 70.939 73.334 71.396 73.303 71.468 72.584 71.576 71.506 70.626 72.178 70.373 71.616 73.105 68.772 72.431 75.538 74.994 75.256 74.874 74.428 74.128 73.241 75.656 73.397 77.173 72.209 77.221 71.225 78.569 73.897 78.617 74.475 78.858 74.881 79.243 75.163 83.455 72.256 87.643 76.194 92.06 74.881 94.768 73.444 97.368 75.663 100.112 75.116 101.074 74.678 102.049 73.897 102.976 75.21 114.325 75.491 126.42 74.319 137.18 75.256 165.932 73.506 196.657 75.975 226.974 73.663 234.123 72.772 241.548 71.506 248.517 70.491 248.517 70.491 254.161 67.709 254.161 55.208S255.365 44.27 255.545 34.317C255.726 24.363 256.568 23.957 255.365 16.144Z" opacity="1" fill="#31c48d" data-fill-palette-color="tertiary"></path><g transform="matrix(1,0,0,1,36.096000000000004,16.977777777777778)"><svg width="183.80799999999996" viewBox="2.190000057220459 -37.599998474121094 169.489990234375 38.099998474121094" height="41.31369712701315" data-palette-color="#ffffff"><path d="M24.9-29.6L24.9-29.6Q23.6-31.05 21.7-32.1 19.8-33.15 16.75-33.15L16.75-33.15Q13.2-33.15 11.23-31.68 9.25-30.2 9.25-27.6L9.25-27.6Q9.25-26.9 9.6-25.95 9.95-25 11.03-24.13 12.1-23.25 14.15-22.5L14.15-22.5 21.65-20.15Q26.2-18.75 28.18-16.18 30.15-13.6 30.15-10.15L30.15-10.15Q30.15-6.85 28.48-4.45 26.8-2.05 23.73-0.78 20.65 0.5 16.4 0.5L16.4 0.5Q13.25 0.5 10.58-0.23 7.9-0.95 5.83-2.38 3.75-3.8 2.35-5.85L2.35-5.85Q2.15-6.2 2.2-6.5 2.25-6.8 2.65-7.1L2.65-7.1 5.1-8.8Q5.65-9.15 5.95-9.1 6.25-9.05 6.5-8.75L6.5-8.75Q7.75-7.15 9.03-6.05 10.3-4.95 11.98-4.42 13.65-3.9 16.05-3.9L16.05-3.9Q19.8-3.9 22.08-5.23 24.35-6.55 24.35-9.45L24.35-9.45Q24.35-10.6 23.9-11.53 23.45-12.45 22.35-13.23 21.25-14 19.15-14.75L19.15-14.75 11.6-17.2Q8.75-18.15 6.98-19.65 5.2-21.15 4.35-23.05 3.5-24.95 3.5-26.95L3.5-26.95Q3.5-30.15 5.15-32.55 6.8-34.95 9.75-36.27 12.7-37.6 16.65-37.6L16.65-37.6Q19.3-37.6 21.53-36.98 23.75-36.35 25.6-35.23 27.45-34.1 28.75-32.55L28.75-32.55Q28.95-32.3 29.03-32.05 29.1-31.8 28.75-31.5L28.75-31.5 25.9-29.3Q25.6-29.1 25.43-29.18 25.25-29.25 24.9-29.6L24.9-29.6ZM41.15-5.8L41.15-0.9Q41.15 0 40.1 0L40.1 0 35.85 0Q35 0 35-0.8L35-0.8 35-5.75Q35-6.45 35.6-6.45L35.6-6.45 40.6-6.45Q41.15-6.45 41.15-5.8L41.15-5.8ZM48.1-36.35L48.1-36.35Q48.1-37.1 48.8-37.1L48.8-37.1 72.1-37.1Q72.7-37.1 72.7-36.45L72.7-36.45 72.65-33.3Q72.65-32.55 71.9-32.55L71.9-32.55 54.9-32.55Q54.15-32.55 54.15-31.9L54.15-31.9 54.15-21.6Q54.15-20.95 54.8-20.95L54.8-20.95 67-20.95Q67.65-20.95 67.65-20.35L67.65-20.35 67.65-17Q67.65-16.75 67.52-16.6 67.4-16.45 67-16.45L67-16.45 54.75-16.45Q54.15-16.45 54.15-15.9L54.15-15.9 54.15-5.1Q54.15-4.55 54.65-4.55L54.65-4.55 72.6-4.55Q73.3-4.55 73.3-3.95L73.3-3.95 73.3-0.65Q73.3-0.35 73.15-0.18 73 0 72.6 0L72.6 0 48.95 0Q48.1 0 48.1-0.8L48.1-0.8 48.1-36.35ZM84.04-5.8L84.04-0.9Q84.04 0 82.99 0L82.99 0 78.74 0Q77.89 0 77.89-0.8L77.89-0.8 77.89-5.75Q77.89-6.45 78.49-6.45L78.49-6.45 83.49-6.45Q84.04-6.45 84.04-5.8L84.04-5.8ZM90.99-36.35L90.99-36.35Q90.99-37.1 91.69-37.1L91.69-37.1 114.99-37.1Q115.59-37.1 115.59-36.45L115.59-36.45 115.54-33.3Q115.54-32.55 114.79-32.55L114.79-32.55 97.79-32.55Q97.04-32.55 97.04-31.9L97.04-31.9 97.04-21.6Q97.04-20.95 97.69-20.95L97.69-20.95 109.89-20.95Q110.54-20.95 110.54-20.35L110.54-20.35 110.54-17Q110.54-16.75 110.42-16.6 110.29-16.45 109.89-16.45L109.89-16.45 97.64-16.45Q97.04-16.45 97.04-15.9L97.04-15.9 97.04-5.1Q97.04-4.55 97.54-4.55L97.54-4.55 115.49-4.55Q116.19-4.55 116.19-3.95L116.19-3.95 116.19-0.65Q116.19-0.35 116.04-0.18 115.89 0 115.49 0L115.49 0 91.84 0Q90.99 0 90.99-0.8L90.99-0.8 90.99-36.35ZM126.94-5.8L126.94-0.9Q126.94 0 125.89 0L125.89 0 121.64 0Q120.79 0 120.79-0.8L120.79-0.8 120.79-5.75Q120.79-6.45 121.39-6.45L121.39-6.45 126.39-6.45Q126.94-6.45 126.94-5.8L126.94-5.8ZM134.74-37.1L134.74-37.1Q135.29-37.1 136.51-37.1 137.74-37.1 139.16-37.08 140.59-37.05 141.81-37.05 143.04-37.05 143.64-37.05L143.64-37.05Q150.49-36.95 154.79-34.77 159.09-32.6 161.11-28.6 163.14-24.6 163.14-18.8L163.14-18.8Q163.14-12.7 160.96-8.5 158.79-4.3 154.36-2.15 149.94 0 143.19 0L143.19 0 134.79 0Q133.89 0 133.89-0.9L133.89-0.9 133.89-36.3Q133.89-36.75 134.09-36.93 134.29-37.1 134.74-37.1L134.74-37.1ZM140.44-32.65L140.44-32.65Q139.94-32.65 139.94-31.95L139.94-31.95 139.94-5Q139.94-4.4 140.54-4.4L140.54-4.4 142.19-4.4Q147.24-4.4 150.49-5.8 153.74-7.2 155.29-10.33 156.84-13.45 156.84-18.6L156.84-18.6Q156.84-23.9 155.29-26.95 153.74-30 150.56-31.33 147.39-32.65 142.49-32.65L142.49-32.65 140.44-32.65ZM171.68-5.8L171.68-0.9Q171.68 0 170.63 0L170.63 0 166.38 0Q165.53 0 165.53-0.8L165.53-0.8 165.53-5.75Q165.53-6.45 166.13-6.45L166.13-6.45 171.13-6.45Q171.68-6.45 171.68-5.8L171.68-5.8Z" opacity="1" transform="matrix(1,0,0,1,0,0)" fill="#ffffff" class="wordmark-text-0" data-fill-palette-color="quaternary" id="text-0"></path></svg></g></svg></g></svg></g></svg></g><g></g></svg></g></svg></g></svg></g><defs></defs></svg><rect width="512" height="320" fill="none" stroke="none" visibility="hidden"></rect></g></svg></g></svg>